<?xml version="1.0" encoding="iso-8859-1"?>
<!-- Generator: Adobe Illustrator 16.0.0, SVG Export Plug-In . SVG Version: 6.00 Build 0)  -->
<!DOCTYPE svg PUBLIC "-//W3C//DTD SVG 1.1//EN" "http://www.w3.org/Graphics/SVG/1.1/DTD/svg11.dtd">
<svg version="1.1" id="Capa_1" xmlns="http://www.w3.org/2000/svg" xmlns:xlink="http://www.w3.org/1999/xlink" x="0px" y="0px"
	 width="439.875px" height="439.875px" viewBox="0 0 439.875 439.875" style="enable-background:new 0 0 439.875 439.875;"
	 xml:space="preserve">
<g>
	<g>
		<path d="M76.5,191.25v57.375c0,21.037,17.212,38.25,38.25,38.25h57.375v-15.3V229.5v-19.125H114.75V229.5H153v38.25h-38.25
			c-11.475,0-19.125-7.65-19.125-19.125V191.25c0-11.475,7.65-19.125,19.125-19.125h57.375V153H114.75
			C93.712,153,76.5,170.212,76.5,191.25z"/>
		<polygon points="191.25,172.125 210.375,172.125 210.375,267.75 191.25,267.75 191.25,286.875 248.625,286.875 248.625,267.75 
			229.5,267.75 229.5,172.125 248.625,172.125 248.625,153 191.25,153 		"/>
		<path d="M382.5,95.625H57.375C24.862,95.625,0,120.487,0,153v133.875c0,32.513,24.862,57.375,57.375,57.375H382.5
			c32.513,0,57.375-24.862,57.375-57.375V153C439.875,120.487,415.013,95.625,382.5,95.625z M420.75,286.875
			c0,21.037-17.213,38.25-38.25,38.25H57.375c-21.038,0-38.25-17.213-38.25-38.25V153c0-21.038,17.212-38.25,38.25-38.25H382.5
			c21.037,0,38.25,17.212,38.25,38.25V286.875z"/>
		<polygon points="267.75,286.875 286.875,286.875 286.875,229.5 344.25,229.5 344.25,210.375 286.875,210.375 286.875,172.125 
			363.375,172.125 363.375,153 267.75,153 		"/>
	</g>
</g>
<g>
</g>
<g>
</g>
<g>
</g>
<g>
</g>
<g>
</g>
<g>
</g>
<g>
</g>
<g>
</g>
<g>
</g>
<g>
</g>
<g>
</g>
<g>
</g>
<g>
</g>
<g>
</g>
<g>
</g>
</svg>
