<?xml version="1.0" ?><svg id="Layer_1" style="enable-background:new 0 0 512 512;" version="1.1" viewBox="0 0 512 512" xml:space="preserve" xmlns="http://www.w3.org/2000/svg" xmlns:xlink="http://www.w3.org/1999/xlink"><style type="text/css">
	.st0{fill:#E75D5C;}
</style><g><polygon class="st0" points="366.5,15.8 366.5,103.9 460.8,103.9  "/><path class="st0" d="M257.3,361.9l28.5,46.2l-28.5,46.2h231.5v-92.4H257.3z M359.4,425.8c-1.3,1.9-3.5,3.6-6.4,5.1   c-2.9,1.5-6.7,2.2-11.3,2.2c-5.7,0-10.5-1.9-14.2-5.6c-3.7-3.7-5.6-8.5-5.6-14.4V403c0-5.9,1.8-10.7,5.4-14.4   c3.6-3.7,8.2-5.6,13.8-5.6c5.7,0,10.1,1.4,13.2,4.3c3.2,2.8,4.7,6.6,4.6,11.1l-0.1,0.2h-7.7c0-2.7-0.9-4.9-2.6-6.6   s-4.1-2.5-7.3-2.5c-3.4,0-6.1,1.3-8.1,3.8c-2.1,2.5-3.1,5.7-3.1,9.6v10.2c0,3.9,1.1,7.1,3.2,9.7c2.1,2.5,4.9,3.8,8.4,3.8   c2.6,0,4.7-0.3,6.2-0.9c1.5-0.6,2.7-1.3,3.4-2.2v-10h-10.2v-6.1h18.3V425.8z M380.2,432.4H372v-48.6h8.1V432.4z M424.2,390.3h-23   v14.9h19.6v6.5h-19.6v20.7h-8.1v-48.6h31.1V390.3z"/><polygon class="st0" points="123.4,167.5 123.4,114.6 78,114.6 78,105.1 23.2,105.1 23.2,177 78,177 78,167.5  "/><polygon class="st0" points="123.4,397.4 123.4,344.5 78,344.5 78,335 23.2,335 23.2,406.9 78,406.9 78,397.4  "/><polygon class="st0" points="274.7,408.1 240.3,352.4 466.6,352.4 466.6,114.7 355.7,114.7 355.7,6 78,6 78,105.1 132.9,105.1    132.9,177 78,177 78,335 132.9,335 132.9,406.9 78,406.9 78,506 466.6,506 466.6,463.8 240.3,463.8  "/></g></svg>