<?xml version="1.0" ?><svg style="enable-background:new 0 0 48 48;" version="1.1" viewBox="0 0 48 48" xml:space="preserve" xmlns="http://www.w3.org/2000/svg" xmlns:xlink="http://www.w3.org/1999/xlink"><g id="Icons"><g><path d="M36.52783,34.16717H11.47217c-0.40356,0-0.73097-0.32741-0.73097-0.73097V14.5638    c0-0.40356,0.32741-0.73097,0.73097-0.73097h25.05566c0.40356,0,0.73097,0.32741,0.73097,0.73097V33.4362    C37.2588,33.83976,36.93139,34.16717,36.52783,34.16717z" style="fill:#F4F4F4;"/><path d="M37.19906,30.21858l-4.78896-3.43342l-4.26133,2.5568l-11.68315-9.72098l-5.5617,6.34715v7.80368    c0,0.21836,0.17701,0.39537,0.39537,0.39537h25.50439c0.21836,0,0.39537-0.17701,0.39537-0.39537V30.21858z" style="fill:#0097D3;"/><path d="    M36.52783,34.16717H11.47217c-0.40356,0-0.73097-0.32741-0.73097-0.73097V14.5638c0-0.40356,0.32741-0.73097,0.73097-0.73097    h25.05566c0.40356,0,0.73097,0.32741,0.73097,0.73097V33.4362C37.2588,33.83976,36.93139,34.16717,36.52783,34.16717z" style="fill:none;stroke:#303030;stroke-width:0.7;stroke-linecap:round;stroke-linejoin:round;stroke-miterlimit:10;"/><circle cx="32.05438" cy="20.60984" r="1.34493" style="fill:#FFCC66;"/><polyline points="    10.90392,25.96812 16.46563,19.62098 28.14877,29.34196 32.4101,26.78516 37.19906,30.21858   " style="fill:none;stroke:#303030;stroke-width:0.7;stroke-linecap:round;stroke-linejoin:round;stroke-miterlimit:10;"/><circle cx="32.05438" cy="20.60984" r="1.34493" style="fill:none;stroke:#303030;stroke-width:0.7;stroke-linecap:round;stroke-linejoin:round;stroke-miterlimit:10;"/></g></g></svg>