<?xml version="1.0" standalone="no"?>
<!DOCTYPE svg PUBLIC "-//W3C//DTD SVG 20010904//EN"
 "http://www.w3.org/TR/2001/REC-SVG-20010904/DTD/svg10.dtd">
<svg version="1.0" xmlns="http://www.w3.org/2000/svg"
 width="185.000000pt" height="208.000000pt" viewBox="0 0 185.000000 208.000000"
 preserveAspectRatio="xMidYMid meet">
<metadata>
Created by potrace 1.15, written by Peter Selinger 2001-2017
</metadata>
<g transform="translate(0.000000,208.000000) scale(0.100000,-0.100000)"
fill="#000000" stroke="none">
<path d="M452 1958 c-16 -40 -53 -143 -81 -228 -29 -85 -55 -161 -60 -168 -4
-8 -63 -33 -130 -57 -137 -49 -171 -67 -171 -93 0 -9 29 -89 65 -177 36 -88
65 -170 65 -182 0 -11 -29 -57 -65 -101 -36 -44 -65 -86 -65 -93 0 -8 16 -25
35 -39 19 -14 35 -28 35 -31 0 -4 -18 -19 -40 -34 l-40 -28 0 -163 c0 -186 -1
-184 87 -184 119 0 195 106 153 215 -20 52 3 46 37 -11 75 -125 168 -209 298
-270 69 -32 196 -64 255 -64 28 0 30 -3 30 -35 0 -19 5 -46 12 -60 8 -19 8
-31 0 -50 -7 -15 -8 -25 -2 -25 6 0 10 6 10 14 0 8 12 28 26 46 94 111 262 61
277 -83 3 -27 7 -51 10 -53 2 -3 25 1 50 8 34 9 55 9 81 1 20 -6 36 -7 36 -3
0 5 -3 10 -7 12 -5 2 -20 29 -36 61 -89 188 -270 248 -409 136 l-38 -30 0 39
c0 57 45 115 106 136 55 19 96 20 127 5 21 -10 21 -9 3 5 -17 14 -18 16 -2 22
22 8 73 -14 91 -40 8 -11 15 -34 15 -51 l0 -30 -41 45 c-31 34 -37 38 -24 15
29 -49 57 -77 69 -65 16 16 23 12 35 -20 12 -35 37 -39 47 -8 6 21 7 21 21 2
27 -34 61 -118 67 -163 3 -24 7 -45 9 -47 1 -1 2 89 1 202 l-1 204 24 0 c35 0
63 -18 63 -40 0 -11 8 -23 18 -28 13 -7 22 -2 41 22 l25 31 -25 -22 c-34 -31
-49 -29 -49 6 0 39 49 81 96 81 29 0 34 -3 34 -23 0 -16 -9 -27 -27 -35 -19
-8 -21 -10 -5 -6 68 16 85 -40 18 -63 -22 -7 -48 -20 -57 -29 -10 -9 -22 -13
-27 -10 -17 10 34 -84 54 -99 24 -18 82 -19 114 0 14 8 44 14 67 15 50 0 93
18 93 38 0 12 -3 12 -22 0 -29 -19 -77 -28 -84 -17 -3 5 -2 24 2 44 5 28 11
35 29 35 12 0 29 8 36 18 11 14 11 15 -1 5 -35 -32 -73 4 -50 47 13 24 23 25
44 4 9 -8 16 -12 16 -7 0 16 -24 33 -47 33 -22 0 -27 9 -37 61 -4 22 -29 73
-40 80 -5 4 -7 18 -4 33 5 22 3 24 -14 15 -15 -8 -23 -6 -37 10 -10 12 -29 21
-42 21 -31 0 -89 -36 -89 -55 0 -8 -7 -15 -15 -15 -19 0 -20 -6 14 96 l29 86
74 25 c78 26 188 81 188 93 0 4 -21 36 -47 70 -91 120 -103 139 -109 169 -8
36 6 40 71 16 22 -8 61 -14 88 -15 l47 0 0 106 0 105 -35 15 c-19 7 -48 14
-64 14 l-29 0 5 58 c4 45 2 60 -10 71 -15 12 -82 23 -230 36 -50 5 -70 11 -77
25 -5 10 -19 91 -31 181 -11 90 -26 175 -33 189 -16 35 -50 30 -231 -37 -228
-84 -215 -82 -283 -49 -31 15 -93 50 -137 76 -86 52 -195 110 -206 110 -4 0
-21 -33 -37 -72z m388 -687 c75 -60 108 -190 75 -291 -37 -112 -141 -179 -217
-139 -20 11 -20 11 2 34 14 15 24 42 28 71 5 44 4 46 -17 39 -26 -8 -40 19
-23 45 13 22 6 30 -24 30 -26 0 -47 -28 -59 -75 l-7 -30 -10 25 c-16 41 -4
179 19 225 54 104 151 132 233 66z m-351 -126 c37 -32 63 -107 59 -172 -3 -52
-23 -59 -23 -8 -1 39 -36 47 -59 13 -38 -54 -4 -178 45 -163 32 10 22 -15 -25
-61 -40 -41 -47 -44 -95 -44 -44 0 -57 4 -81 28 -58 59 -66 233 -15 337 45 93
130 124 194 70z m1183 -575 c55 -83 73 -153 63 -246 -7 -69 -12 -76 -68 -94
-50 -16 -88 0 -113 45 -22 41 -11 58 44 76 20 6 43 16 50 22 17 13 15 46 -3
54 -11 4 -15 16 -13 37 2 25 -1 32 -19 34 -13 2 -25 14 -32 32 -5 16 -21 39
-35 51 -24 21 -25 24 -9 41 10 11 30 18 52 18 34 0 40 -5 83 -70z m-516 -340
c26 -13 62 -39 81 -59 33 -35 88 -120 81 -125 -1 -2 -24 -6 -50 -8 l-46 -5
-13 45 c-24 86 -95 142 -179 142 -46 0 -73 -11 -111 -47 -20 -18 -29 -21 -35
-12 -10 17 57 75 104 88 52 14 112 7 168 -19z"/>
</g>
</svg>
